<svg width="33" height="35" viewBox="0 0 33 35" fill="none" xmlns="http://www.w3.org/2000/svg">
<path d="M15.0554 3.23159L18.2793 6.45557L20.7962 6.47838L23.3054 6.50119L23.8224 6.75211C24.4764 7.07907 25.0086 7.61133 25.3356 8.26525L25.5865 8.7823L25.6093 18.4542L25.6245 28.1338L17.2452 28.1186L8.85833 28.0957L8.34128 27.8524C7.65694 27.5255 7.05625 26.9476 6.7445 26.3165L6.50118 25.8146L6.47837 21.0243L6.45556 16.2263L3.23158 13.0024L0 9.77079L0.0152074 19.5416L0.0380186 29.3123L0.212904 29.8826C0.897239 32.1029 2.60047 33.7605 4.82836 34.3916L5.43666 34.5589L18.766 34.5817L32.0877 34.5969V20.1575C32.0877 4.46339 32.1105 5.3074 31.6695 4.13643C31.0536 2.49403 29.6469 1.07213 28.0273 0.448627C26.8487 -0.00759568 26.9704 8.14551e-06 19.0625 8.14551e-06H11.8238L15.0554 3.23159Z" fill="white"/>
<path d="M0.53125 3.38379V5.01859H2.12803H3.72481V6.61537V8.21215H5.35961H6.99441V6.61537V5.01859H8.59119H10.188V6.61537V8.21215H11.7848H13.3815V9.80893V11.4057H11.7848H10.188V13.0405V14.6753H11.7848H13.3815V17.2986V19.9219H16.0428H18.7041V17.2606V14.5993H16.0428H13.3815V13.0025V11.4057H15.0163H16.6511V9.80893V8.21215H15.0163H13.3815V6.57735V4.94255H11.7848H10.188V3.34577V1.74899H8.55317H6.91837V3.34577V4.94255H5.32159H3.72481V3.34577V1.74899H2.12803H0.53125V3.38379Z" fill="#24B8EB"/>
</svg>
