<svg width="1920" height="82" viewBox="0 0 1920 82" fill="none" xmlns="http://www.w3.org/2000/svg">
<path d="M1838.17 13.9259L1926.76 40.4903V92.9171L-79.9996 92.9171L58.0215 9.59597L203.746 44.9372L377.717 19.0749L502.899 30.8943L753.904 0L850.84 30.8943L963.825 0L1069.11 26.5645L1158.34 9.59597L1352.21 30.8943L1619.26 13.9259L1789.38 40.4903L1838.17 13.9259Z" fill="url(#paint0_linear_1529_90)"/>
<path d="M1838.4 27.2319L1927 49.3495V93L-67.5 80.5001L58.0375 23.6268L203.779 53.052L377.771 31.519L502.968 41.3599L754.003 15.6372L850.95 41.3599L963.948 15.6372L1069.24 37.7548L1158.48 23.6268L1352.38 41.3599L1619.47 27.2319L1789.6 49.3495L1838.4 27.2319Z" fill="url(#paint1_linear_1529_90)"/>
<defs>
<linearGradient id="paint0_linear_1529_90" x1="866.389" y1="-217.492" x2="865.064" y2="80.5771" gradientUnits="userSpaceOnUse">
<stop stop-color="#22C8FF"/>
<stop offset="1" stop-color="#00C0FF" stop-opacity="0"/>
</linearGradient>
<linearGradient id="paint1_linear_1529_90" x1="866.501" y1="-165.447" x2="865.583" y2="82.7273" gradientUnits="userSpaceOnUse">
<stop stop-color="#22C8FF"/>
<stop offset="1" stop-color="#00C0FF" stop-opacity="0"/>
</linearGradient>
</defs>
</svg>
