<svg width="63" height="18" viewBox="0 0 63 18" fill="none" xmlns="http://www.w3.org/2000/svg">
<path d="M16.4746 8.9415V17.8382L14.8415 17.8651L13.1994 17.8831V14.2436V10.604H8.2642H3.32901V14.2436V17.8831H1.66899H0L0.0269192 10.2176L0.0538384 2.56106L0.314057 2.00389C0.771684 1.00639 1.7677 0.242532 2.82652 0.0897612C3.07776 0.0538151 6.25423 0.0268581 9.87935 0.0358446L16.4746 0.044828V8.9415ZM39.9661 0.0897612C41.1056 0.269492 42.0119 0.934497 42.5144 1.95896L42.7657 2.47119V5.30195V8.13271L42.4696 8.73481C42.1196 9.46272 41.4646 10.0648 40.7467 10.3524C40.307 10.5321 40.0468 10.5501 38.3778 10.586L36.5025 10.622L40.1276 14.2525L43.7527 17.8831H41.8684H39.984L34.8066 12.6979L29.6201 7.50365V12.6529V17.7932H28.005H26.3898V12.5361V7.27899H32.0967C36.1166 7.27899 37.9112 7.25203 38.1535 7.18014C38.6111 7.03635 39.0957 6.62297 39.32 6.17365C39.4725 5.88608 39.4995 5.68837 39.4725 5.2031C39.4277 4.43026 39.1226 3.936 38.4586 3.6035L38.0189 3.36985L33.6131 3.34289L29.2073 3.31593L27.5473 1.65342L25.8963 -0.000101189H32.671C36.5383 -0.000101189 39.67 0.035842 39.9661 0.0897612ZM62.9999 7.51264C62.9999 15.8342 63.0179 15.5556 62.4167 16.4093C62.0219 16.9575 61.5014 17.3709 60.8644 17.6315L60.3529 17.8382L53.4705 17.8651L46.5792 17.8921V10.3524C46.5792 2.00389 46.5523 2.42626 47.1714 1.48267C47.665 0.745779 48.4366 0.242532 49.3519 0.0897612C49.5762 0.0538151 52.7437 0.0178687 56.3868 0.00888217L62.9999 -0.000101189V7.51264ZM23.0698 8.9415V17.7932H21.4098H19.7497V8.9415V0.0897612H21.4098H23.0698V8.9415Z" fill="white"/>
<path d="M4.55394 2.86928C4.05029 2.96821 3.60959 3.29199 3.40274 3.72369C3.24085 4.05646 3.21387 4.27231 3.21387 5.42352V6.74561H8.16045H13.107V4.76697V2.78834L8.99687 2.79733C6.73044 2.80633 4.73382 2.83331 4.55394 2.86928Z" fill="#000205"/>
<path d="M51.1767 2.87807C50.7091 2.98599 50.3043 3.2738 50.0975 3.65154L49.8906 4.00229V8.96686V13.9404H54.2076C58.3358 13.9404 58.5516 13.9314 58.8844 13.7606C59.3251 13.5357 59.5769 13.185 59.6939 12.6273C59.7568 12.3485 59.7748 10.4778 59.7658 7.50987L59.7388 2.8331L55.6017 2.81511C53.3263 2.81511 51.3386 2.8331 51.1767 2.87807Z" fill="#000205"/>
</svg>
